<svg width="8" height="12" viewBox="0 0 8 12" fill="none" xmlns="http://www.w3.org/2000/svg">
<path d="M2.03202 12.0003V3.31231C2.03202 2.72565 2.16002 2.20831 2.41602 1.76031C2.68268 1.31231 3.04535 0.960312 3.50402 0.704312C3.97335 0.448312 4.51202 0.320312 5.12002 0.320312C5.58935 0.320312 5.98935 0.400312 6.32002 0.560312C6.65068 0.720312 6.96002 0.949645 7.24802 1.24831L6.11202 2.38431C5.98402 2.25631 5.84535 2.15498 5.69602 2.08031C5.54668 2.00565 5.35468 1.96831 5.12002 1.96831C4.69335 1.96831 4.36268 2.08565 4.12802 2.32031C3.90402 2.54431 3.79202 2.86965 3.79202 3.29631V12.0003H2.03202ZM0.192017 5.92031V4.32031H6.11202V5.92031H0.192017Z" fill="#111204"/>
</svg>
