<svg width="97" height="25" viewBox="0 0 97 25" fill="none" xmlns="http://www.w3.org/2000/svg">
<path d="M14.3244 24L5.17238 12.224L14.0364 1.408H20.2444L10.2604 13.152V11.104L20.5644 24H14.3244ZM0.660375 24V1.408H5.68438V24H0.660375ZM22.7749 24V8.448H27.6709V24H22.7749ZM27.6709 15.456L25.6229 13.856C26.0282 12.0427 26.7109 10.6347 27.6709 9.632C28.6309 8.62933 29.9642 8.128 31.6709 8.128C32.4175 8.128 33.0682 8.24533 33.6229 8.48C34.1989 8.69333 34.7002 9.03467 35.1269 9.504L32.2149 13.184C32.0015 12.9493 31.7349 12.768 31.4149 12.64C31.0949 12.512 30.7322 12.448 30.3269 12.448C29.5162 12.448 28.8655 12.704 28.3749 13.216C27.9055 13.7067 27.6709 14.4533 27.6709 15.456ZM43.4816 24.352C41.8816 24.352 40.431 24 39.1296 23.296C37.8496 22.5707 36.8363 21.5893 36.0896 20.352C35.343 19.1147 34.9696 17.728 34.9696 16.192C34.9696 14.656 35.343 13.28 36.0896 12.064C36.8363 10.848 37.8496 9.888 39.1296 9.184C40.4096 8.45867 41.8603 8.096 43.4816 8.096C45.103 8.096 46.5536 8.448 47.8336 9.152C49.1136 9.856 50.127 10.8267 50.8736 12.064C51.6203 13.28 51.9936 14.656 51.9936 16.192C51.9936 17.728 51.6203 19.1147 50.8736 20.352C50.127 21.5893 49.1136 22.5707 47.8336 23.296C46.5536 24 45.103 24.352 43.4816 24.352ZM43.4816 19.904C44.1856 19.904 44.8043 19.7547 45.3376 19.456C45.871 19.136 46.2763 18.6987 46.5536 18.144C46.8523 17.568 47.0016 16.9173 47.0016 16.192C47.0016 15.4667 46.8523 14.8373 46.5536 14.304C46.255 13.7493 45.839 13.3227 45.3056 13.024C44.7936 12.704 44.1856 12.544 43.4816 12.544C42.799 12.544 42.191 12.704 41.6576 13.024C41.1243 13.3227 40.7083 13.7493 40.4096 14.304C40.111 14.8587 39.9616 15.4987 39.9616 16.224C39.9616 16.928 40.111 17.568 40.4096 18.144C40.7083 18.6987 41.1243 19.136 41.6576 19.456C42.191 19.7547 42.799 19.904 43.4816 19.904Z" fill="white"/>
<path d="M64.7031 24V15.136C64.7031 14.3253 64.4471 13.6747 63.9351 13.184C63.4445 12.672 62.8151 12.416 62.0471 12.416C61.5138 12.416 61.0445 12.5333 60.6391 12.768C60.2338 12.9813 59.9138 13.3013 59.6791 13.728C59.4445 14.1333 59.3271 14.6027 59.3271 15.136L57.4391 14.208C57.4391 12.992 57.7058 11.9253 58.2391 11.008C58.7725 10.0907 59.5085 9.38667 60.4471 8.896C61.4071 8.384 62.4845 8.128 63.6791 8.128C64.8311 8.128 65.8445 8.40533 66.7191 8.96C67.6151 9.49333 68.3191 10.208 68.8311 11.104C69.3431 12 69.5991 12.9813 69.5991 14.048V24H64.7031ZM54.4311 24V8.448H59.3271V24H54.4311ZM72.7436 24V8.448H77.6396V24H72.7436ZM75.2076 6.304C74.4396 6.304 73.7996 6.048 73.2876 5.536C72.797 5.00267 72.5516 4.36267 72.5516 3.616C72.5516 2.848 72.797 2.208 73.2876 1.696C73.7996 1.184 74.4396 0.927999 75.2076 0.927999C75.9756 0.927999 76.605 1.184 77.0956 1.696C77.5863 2.208 77.8316 2.848 77.8316 3.616C77.8316 4.36267 77.5863 5.00267 77.0956 5.536C76.605 6.048 75.9756 6.304 75.2076 6.304ZM90.7194 24L86.9754 17.952L85.9194 17.28L79.8074 8.448H85.5354L89.0234 14.112L90.0474 14.752L96.3834 24H90.7194ZM79.5194 24L85.8874 14.944L88.6714 18.08L84.8634 24H79.5194ZM90.0154 17.248L87.2314 14.112L90.7514 8.448H96.0634L90.0154 17.248Z" fill="#B9FD50"/>
</svg>
