<svg width="851" height="416" viewBox="0 0 851 416" fill="none" xmlns="http://www.w3.org/2000/svg">
<path d="M760.091 97.3758C759.129 94.1256 756.587 91.5835 753.337 90.6223L719.296 80.5551C718.102 80.202 718.102 78.5109 719.296 78.1578L753.337 68.0906C756.587 67.1294 759.129 64.5873 760.091 61.3371L770.158 27.2962C770.511 26.1022 772.202 26.1022 772.555 27.2962L782.622 61.3371C783.583 64.5873 786.126 67.1294 789.376 68.0906L823.417 78.1578C824.611 78.5109 824.611 80.202 823.417 80.5551L789.376 90.6223C786.126 91.5835 783.583 94.1256 782.622 97.3758L772.555 131.417C772.202 132.611 770.511 132.611 770.158 131.417L760.091 97.3758Z" fill="#B9FD50" fill-opacity="0.25"/>
<path d="M569.157 404.837C568.58 402.887 567.055 401.361 565.105 400.785L561.403 399.69C560.686 399.478 560.686 398.463 561.403 398.251L565.105 397.157C567.055 396.58 568.58 395.055 569.157 393.104L570.251 389.402C570.463 388.686 571.478 388.686 571.69 389.402L572.785 393.104C573.361 395.055 574.887 396.58 576.837 397.157L580.539 398.251C581.255 398.463 581.255 399.478 580.539 399.69L576.837 400.785C574.887 401.361 573.361 402.887 572.785 404.837L571.69 408.539C571.478 409.255 570.463 409.255 570.251 408.539L569.157 404.837Z" fill="#B9FD50" fill-opacity="0.25"/>
<path d="M10.1051 378.224C9.72063 376.924 8.70379 375.908 7.40371 375.523L4.93574 374.793C4.45813 374.652 4.45813 373.975 4.93574 373.834L7.40371 373.104C8.70379 372.72 9.72063 371.703 10.1051 370.403L10.835 367.935C10.9762 367.457 11.6527 367.457 11.7939 367.935L12.5238 370.403C12.9083 371.703 13.9251 372.72 15.2252 373.104L17.6932 373.834C18.1708 373.975 18.1708 374.652 17.6932 374.793L15.2252 375.523C13.9251 375.908 12.9083 376.924 12.5238 378.224L11.7939 380.692C11.6527 381.17 10.9762 381.17 10.835 380.692L10.1051 378.224Z" fill="#B9FD50" fill-opacity="0.25"/>
</svg>
