<svg width="15" height="25" viewBox="0 0 15 25" fill="none" xmlns="http://www.w3.org/2000/svg">
<path d="M0.984985 0.5C1.31832 0.166666 1.72665 0 2.20999 0C2.69332 0 3.10165 0.166666 3.43499 0.5L14.01 11.1C14.36 11.45 14.535 11.8542 14.535 12.3125C14.535 12.7708 14.36 13.175 14.01 13.525L3.43499 24.125C3.10165 24.4583 2.69332 24.625 2.20999 24.625C1.72665 24.625 1.31832 24.4583 0.984985 24.125C0.651652 23.7917 0.484985 23.3875 0.484985 22.9125C0.484985 22.4375 0.651652 22.0333 0.984985 21.7L10.36 12.325L0.984985 2.95C0.651652 2.61667 0.484985 2.20833 0.484985 1.725C0.484985 1.24167 0.651652 0.833332 0.984985 0.5Z" fill="#14142B"/>
</svg>
